<svg width="420" height="260" viewBox="0 0 420 260" xmlns="http://www.w3.org/2000/svg" role="img" aria-labelledby="title desc">
  <title id="title">Confidence ribbon demo</title>
  <desc id="desc">Line with shaded confidence ribbon, simplified.</desc>
  <rect width="420" height="260" fill="#0b1220"/>
  <text x="22" y="32" fill="#c7d2e0" font-family="Arial, sans-serif" font-size="13">Metric with confidence ribbon</text>
  <line x1="70" y1="210" x2="350" y2="210" stroke="#6c7380" stroke-width="2"/>
  <line x1="70" y1="210" x2="70" y2="60" stroke="#6c7380" stroke-width="2"/>
  <path d="M70 180 L120 160 L170 150 L220 132 L270 122 L320 112 L350 105 L350 132 L320 140 L270 150 L220 165 L170 176 L120 188 L70 198 Z" fill="#4da3ff33" stroke="none"/>
  <polyline points="70,189 120,174 170,162 220,148 270,138 320,126 350,116" fill="none" stroke="#4da3ff" stroke-width="3"/>
  <g fill="#c7d2e0" font-family="Arial, sans-serif" font-size="11">
    <text x="66" y="232">T1</text>
    <text x="116" y="232">T2</text>
    <text x="166" y="232">T3</text>
    <text x="216" y="232">T4</text>
    <text x="266" y="232">T5</text>
    <text x="316" y="232">T6</text>
    <text x="346" y="232">T7</text>
  </g>
  <rect x="270" y="48" width="130" height="60" fill="#111a2c" stroke="#1f2b3f" stroke-width="1" rx="10"/>
  <text x="282" y="68" fill="#c7d2e0" font-family="Arial, sans-serif" font-size="11">Ribbon = 95% CI</text>
  <text x="282" y="86" fill="#5fe3a1" font-family="Arial, sans-serif" font-size="11">Trend improving</text>
</svg>
